<?xml version="1.0" encoding="utf-8"?>
<!-- Generator: Adobe Illustrator 27.5.0, SVG Export Plug-In . SVG Version: 6.00 Build 0)  -->
<svg version="1.1" id="appleCorn" xmlns="http://www.w3.org/2000/svg" xmlns:xlink="http://www.w3.org/1999/xlink" x="0px" y="0px"
	 viewBox="0 0 122.9 117" style="enable-background:new 0 0 122.9 117;" xml:space="preserve">
<style type="text/css">
	.st0{fill-rule:evenodd;clip-rule:evenodd;fill:#ED1525;}
	.st1{fill-rule:evenodd;clip-rule:evenodd;fill:#7DB820;}
	.st2{fill-rule:evenodd;clip-rule:evenodd;fill:#8E4D3C;}
	.st3{fill-rule:evenodd;clip-rule:evenodd;fill:#F2B408;}
	.st4{fill-rule:evenodd;clip-rule:evenodd;fill:#F09418;}


	@keyframes slide {
      0% {
        transform: translateX(50%);
      }

      100% {
        transform: translateX(0);
      }
    }

    #right-half-apple {
      animation: slide 2s ease-in-out infinite;
    }

    #apple-leaf {
      animation: slide 2s ease-in-out infinite;
    }

    #apple-top {
      animation: slide 2s ease-in-out infinite;
    }
</style>

<script>
const appleCorn = document.querySelector("#appleCorn");

function logId() {
	console.log(this.id)
}

appleCorn.addEventListener("click", logId);

 </script>



<path id="right-half-apple" class="st0" d="M67.8,27.2c-10.5-3.3-19.2-1-25.4,4.5c1.5,0.7,2.7,2.1,3.1,3.7c0.9,3.3,1.5,6.7,1.7,10.1
	c3-0.6,5.9,1.2,6.7,4.1c1.2,4,1.8,8.1,2,12.2c0.2-0.1,0.4-0.1,0.5-0.2c3-0.8,6.2,1,7,4l0,0c2.8,10.7,2.9,17.7,0.4,23
	c-2.1,4.4-5.6,7.2-10.4,9.3c0.9,0.9,1.9,1.8,2.9,2.7c8,5.7,15,4.9,21.5,1.4c5.2,2.4,10.6,3.4,16.5,1.2c8.6-3.2,17.4-16,21.6-24
	c9-17.3,12.1-39.5-8.1-50.3c-5.5-3-12.4-3.8-21.1-1.9C80.6,29.1,74,29.1,67.8,27.2L67.8,27.2z"/>
<path id="apple-leaf" class="st1" d="M61.4,24c4.4,0.5,9.1-0.5,14.2-3.2l1-5C71,6,61.6,0.9,46.2,3.3l-6.1,0.6
	C44.5,13.2,50,22.6,61.4,24z"/>
<path id="apple-top" class="st2" d="M75.1,22L75.1,22c-0.2,2.2-0.4,4.4-0.3,6.6l5.4,0.1c-0.1-4.1,0.5-8.1,1.7-12
	c1.5-4.6,4.2-8.7,7.7-12c1.2-0.9,1.5-2.6,0.6-3.8s-2.6-1.5-3.8-0.6c-0.1,0.1-0.3,0.2-0.4,0.4c-4.3,3.9-7.5,8.8-9.2,14.3
	c-0.2,0.7-0.5,1.5-0.7,2.3v-0.1L75.1,22z"/>
<path id="corn-leaf" class="st3" d="M31.4,58.3c9.1-3.1,12.5-6.8,8.6-21.5C32.8,42.5,24.5,46.6,31.4,58.3L31.4,58.3z M24.9,43.3
	c8.5-2.9,11.6-6.4,8-20C26.2,28.5,18.4,32.3,24.9,43.3z M42.1,96.5c-10.8,5.7-17.1,5.6-27.2-10.7C26.3,84.1,37.3,79.9,42.1,96.5z
	 M33.8,77.4c-9.6,5.1-15.2,5-24.2-9.5C19.8,66.4,29.6,62.6,33.8,77.4z M26.5,60.4C18,64.9,13,64.8,5,52
	C14.1,50.7,22.7,47.4,26.5,60.4L26.5,60.4z M20,45.3c-8,4.2-12.6,4.1-20-7.9C8.4,36.2,16.5,33.1,20,45.3z M47,94.3
	c11.6-4,15.8-8.6,10.9-27.2C48.8,74.4,38.2,79.5,47,94.3L47,94.3z M38.8,75.3c10.3-3.5,14-7.7,9.7-24.2
	C40.3,57.5,30.9,62.1,38.8,75.3z"/>
<path id="corn-top-down" class="st4" d="M17.5,31.9C23,23.2,21,15.4,7.6,8.8C3.6,18.8,5.3,29.6,17.5,31.9z M44.2,101.1L49,99
	l6.2,14.3c1.4,3.2-3.4,5.2-4.8,2.1L44.2,101.1L44.2,101.1z"/>
</svg>
