<?xml version="1.0" encoding="utf-8"?>
<!-- Generator: Adobe Illustrator 27.5.0, SVG Export Plug-In . SVG Version: 6.00 Build 0)  -->
<svg version="1.1" id="onebeerglass" xmlns="http://www.w3.org/2000/svg" xmlns:xlink="http://www.w3.org/1999/xlink" x="0px"
	 y="0px" viewBox="0 0 480.2 759.5" style="enable-background:new 0 0 480.2 759.5;" xml:space="preserve">
<style type="text/css">
	.st0{fill:#EBA824;}
	.st1{fill:#EACC53;}
	.st2{fill:#F5ECDA;}
	
    #onebeerglass:hover #beer-foam {
      transition: all .7s ease-in-out;
      transform-origin: bottom center;
      transform: scale(1, 1.019);
    }
	
<script>
const onebeerglass = document.querySelector("#onebeerglass");

function logId() {
	console.log(this.id)
}

onebeerglass.addEventListener("click", logId);

 </script>

</style>
<path id="mug" class="st0" d="M51.4,134.8h381v624.7h-381C51.4,759.5,51.4,134.8,51.4,134.8z"/>
<path id="botthom-bar" class="st1" d="M51.4,685.2h381v51.9h-381C51.4,737.1,51.4,685.2,51.4,685.2z"/>
<path id="middle-03-bar" class="st1" d="M121.7,317.8h32.1v383.4h-32.1C121.7,701.2,121.7,317.8,121.7,317.8z M226.8,317.8h32.1
	v383.4h-32.1L226.8,317.8L226.8,317.8z M329.4,317.8h32.1v383.4h-32.1V317.8z"/>
<g id="beer-foam">
	<path class="st2" d="M23.6,65.9c0,0-45.8,76.7,32.8,101.4c20.4,4.4,62.5-1.9,87.2-11.7c11.7-2.5,40.8-11.1,50.7,19.8
		c8,13,40.8,50.7,66.8,6.2c8-19.2,14.8-42.7,48.8-39c20.4,3.1,80.8,25,123.5,10.2c0.2,37.5,0,39.7,0,39.7s56.2-7.8,38.6-80.8
		c-5.6-19.2-29.7-54.4-69.9-53.8c-16.1-5.6-29-17.3-39-24.1c-11.1-7.4-75.5-43.9-126.8-6.2c-16.1-5.3-29-15.2-63.1-19.8
		C145.1,5.3,75.6,3.6,23.6,65.9L23.6,65.9z"/>
</g>
</svg>
