<?xml version="1.0" encoding="utf-8"?>
<!-- Generator: Adobe Illustrator 27.5.0, SVG Export Plug-In . SVG Version: 6.00 Build 0)  -->
<svg version="1.1" id="cherries" xmlns="http://www.w3.org/2000/svg" xmlns:xlink="http://www.w3.org/1999/xlink" x="0px" y="0px" viewBox="0 0 122.9 122.8" style="enable-background:new 0 0 122.9 122.8;" xml:space="preserve">
  <style type="text/css">
    .st0 {
      fill-rule: evenodd;
      clip-rule: evenodd;
      fill: #659C35;
    }

    .st1 {
      fill-rule: evenodd;
      clip-rule: evenodd;
      fill: #D13834;
    }

    #leftball,
    #rightball {
      transition: transform 1s;
    }

    #leftball:hover,
    #rightball:hover {
      transform: translateY(50px);
    }
  </style>

<script>
const cherries = document.querySelector("#cherries");

function logId() {
	console.log(this.id)
}

cherries.addEventListener("click", logId);

 </script>

  
  <g id="both-cherries">
    <path id="branch" class="st0" d="M88.3,56c-6.2-5.1-10.2-13.7-11.4-22.6c-1.3-9.7,0.5-19.8,5.5-27l0,0l0.2-0.2
		c1.2-1.8,0.8-4.2-1-5.4c-1.8-1.2-4.2-0.8-5.4,1L76,1.9l0,0l0,0c-2.1,3.1-3.8,6.6-5,10.3c-3-7-7.6-10.1-13.3-10.9
		C51.9,0.5,46.6,2.2,41,3.7c-3.8,1-7.6,2.1-11.3,3.3c2.2,3.6,5.1,6.6,8.6,9.1c1.8,1.2,3.6,2.3,5.5,3.1c8.1,3.6,19.4,4.1,26-2.5
		c-0.2,0.9-0.3,1.8-0.5,2.7c-10.5,6.1-19.8,13.2-26.9,21.9C35.8,49.4,31,58.8,28.6,70l7.5,1.8c2.1-10,6.3-18.4,12.2-25.5
		c5.5-6.7,12.5-12.4,20.4-17.4c0.1,1.8,0.2,3.7,0.4,5.5c1.3,9.6,5.4,19,11.7,25.5L88.3,56L88.3,56z" />
    <path id="rightball" class="st1" d="M76.2,97.8c4.8,5.8,12.1,9.4,20.3,9.4c14.6,0,26.4-11.8,26.4-26.4c0-8.9-4.4-16.8-11.1-21.6
		l0,0l-0.2-0.2l0,0c-4.2-2.8-9.3-4.5-14.8-4.5c-14.6,0-26.5,11.9-26.5,26.5C70.2,87.4,72.4,93.2,76.2,97.8L76.2,97.8z M112,93.8
		c0.5-0.7,0.4-1.6-0.3-2.1s-1.6-0.4-2.1,0.3c-1.2,1.7-2.6,3.1-4.2,4.3c-1.5,1.2-3.2,2.1-5,2.8c-0.8,0.3-1.2,1.2-0.9,2
		c0.3,0.8,1.2,1.2,2,0.9c2.1-0.8,4-1.8,5.8-3.2S110.6,95.6,112,93.8L112,93.8L112,93.8z" />
    <path id="leftball" class="st1" d="M28.6,70L28.6,70c-0.7,0-1.5-0.1-2.2-0.1C11.8,69.9,0,81.8,0,96.4s11.8,26.4,26.5,26.4
		c2.7,0,5.3-0.4,7.7-1.2c10.8-3.4,18.6-13.4,18.6-25.3C52.8,82.6,42.2,71.2,28.6,70L28.6,70z M10.9,109.3c-0.5-0.7-0.4-1.6,0.3-2.1
		s1.6-0.4,2.1,0.3c1.2,1.7,2.6,3.1,4.2,4.3c1.5,1.2,3.2,2.1,5,2.8c0.8,0.3,1.2,1.2,0.9,2c-0.3,0.8-1.2,1.2-2,0.9
		c-2.1-0.8-4-1.8-5.8-3.2S12.3,111.2,10.9,109.3L10.9,109.3L10.9,109.3z" />
  </g>
</svg>