<?xml version="1.0" encoding="utf-8"?>
<!-- Generator: Adobe Illustrator 27.5.0, SVG Export Plug-In . SVG Version: 6.00 Build 0)  -->
<svg version="1.1" id="middleLeaf" xmlns="http://www.w3.org/2000/svg" xmlns:xlink="http://www.w3.org/1999/xlink" x="0px" y="0px"
	 viewBox="0 0 122.9 115.8" style="enable-background:new 0 0 122.9 115.8;" xml:space="preserve">
<style type="text/css">
	.st0{fill-rule:evenodd;clip-rule:evenodd;fill:#F09418;}
	.st1{fill-rule:evenodd;clip-rule:evenodd;fill:#FFD203;}
	
	
	

#middleLeaf:hover #right-leaf{
	transition: all 0.5s ease-in-out;
	animation: shake 0.5s ease-in-out;
 }
 @keyframes shake {
   0% { transform: translate(0, 0); }
   10%, 30%, 50%, 70%, 90% { transform: translate(-3px, 0); }
   20%, 40%, 60%, 80% { transform: translate(3px, 0); }
   100% { transform: translate(0, 0); }
 }




#middleLeaf:hover #left-leaf{
	transition: all 0.5s ease-in-out;
	animation: shake 0.5s ease-in-out;
 }
 @keyframes shake {
   0% { transform: translate(0, 0); }
   10%, 30%, 50%, 70%, 90% { transform: translate(-3px, 0); }
   20%, 40%, 60%, 80% { transform: translate(3px, 0); }
   100% { transform: translate(0, 0); }
 }


#middleLeaf:hover #middle-leaf{
	transition: all 0.7s ease-in-out;
	transform-origin: bottom center;
		transform: scale(1, 1.090);
 }






</style>




<script>
const middleLeaf = document.querySelector("#middleLeaf");

function logId() {
	console.log(this.id)
}

middleLeaf.addEventListener("click", logId);

 </script>


<g id="right-leaf">
	<path class="st0" d="M88.7,95.9c0.4-1,1.5-1.4,2.5-1.1s1.4,1.5,1.1,2.5c-0.8,1.9-1.7,3.8-2.6,5.8c-1.7,3.6-3.4,7.3-4.3,11.2
		c-0.2,1-1.3,1.7-2.3,1.4c-1-0.2-1.7-1.3-1.4-2.3c1-4.3,2.8-8.2,4.6-12C87.1,99.6,88,97.8,88.7,95.9L88.7,95.9L88.7,95.9z"/>
	<path class="st0" d="M112.6,40.4c6-1.5,8.4-5.8,5.4-14.3C114.7,27.6,107.1,32.7,112.6,40.4L112.6,40.4L112.6,40.4z"/>
	<path class="st1" d="M111,48.4c4.9,2.3,7.7,2.1,11.9-5.4C117.7,42.5,112.8,40.9,111,48.4L111,48.4L111,48.4z M108,47.3
		c-5.2-1.5-7.2-3.5-5.4-11.9C106.8,38.4,111.6,40.5,108,47.3L108,47.3L108,47.3z M91.6,91c-7.1-2.1-9.8-4.8-7.4-16.1
		C89.9,78.9,96.5,81.7,91.6,91L91.6,91L91.6,91z M96.1,78.9c-7.1-2.1-9.8-4.8-7.4-16.1C94.5,66.8,101,69.6,96.1,78.9L96.1,78.9
		L96.1,78.9z M100.6,67.1c-6.3-1.8-8.7-4.2-6.6-14.3C99.1,56.4,104.9,58.9,100.6,67.1L100.6,67.1L100.6,67.1z M104.5,56.6
		c-5.6-1.6-7.8-3.8-5.8-12.7C103.2,47.1,108.4,49.3,104.5,56.6L104.5,56.6L104.5,56.6z M94.7,92.1c6.7,3.1,10.5,2.8,16.2-7.3
		C103.9,84.1,97.1,81.9,94.7,92.1L94.7,92.1L94.7,92.1z M99.2,80.1c6.7,3.1,10.5,2.8,16.2-7.3C108.4,72.1,101.6,69.9,99.2,80.1
		L99.2,80.1L99.2,80.1z M103.6,68.2c6,2.8,9.4,2.5,14.4-6.5C111.8,61.1,105.7,59.2,103.6,68.2L103.6,68.2L103.6,68.2z M107.5,57.7
		c5.3,2.5,8.3,2.2,12.8-5.8C114.8,51.4,109.4,49.7,107.5,57.7L107.5,57.7L107.5,57.7z"/>
</g>
<g id="left-leaf">
	<path class="st0" d="M30.3,97.3c-0.4-1,0.1-2.1,1-2.5c1-0.4,2.1,0.1,2.5,1.1c0.8,1.9,1.6,3.7,2.5,5.6c1.7,3.7,3.5,7.4,4.5,11.6
		c0.2,1-0.4,2.1-1.4,2.3c-1,0.2-2.1-0.4-2.3-1.4c-0.9-3.7-2.6-7.3-4.3-10.8C32,101.1,31.1,99.2,30.3,97.3L30.3,97.3L30.3,97.3z"/>
	<path class="st0" d="M10.3,40.1c-6-1.5-8.4-5.8-5.4-14.3C8.2,27.3,15.8,32.3,10.3,40.1L10.3,40.1L10.3,40.1z"/>
	<path class="st1" d="M11.9,48.1c-5,2.3-7.7,2.1-11.9-5.4C5.1,42.2,10.1,40.6,11.9,48.1L11.9,48.1L11.9,48.1z M31.3,90.7
		c7.1-2.1,9.8-4.8,7.4-16.1C32.9,78.6,26.4,81.4,31.3,90.7L31.3,90.7L31.3,90.7z M26.8,78.6c7.1-2.1,9.8-4.8,7.4-16.1
		C28.4,66.5,21.9,69.3,26.8,78.6L26.8,78.6L26.8,78.6z M22.3,66.8c6.3-1.8,8.7-4.2,6.6-14.3C23.8,56.1,18,58.5,22.3,66.8L22.3,66.8
		L22.3,66.8z M18.4,56.3c5.6-1.6,7.8-3.8,5.8-12.7C19.7,46.8,14.5,49,18.4,56.3L18.4,56.3L18.4,56.3z M14.9,47
		c5.2-1.5,7.2-3.5,5.4-11.9C16.1,38.1,11.3,40.2,14.9,47L14.9,47L14.9,47z M28.2,91.8c-6.7,3.1-10.5,2.8-16.2-7.3
		C19,83.8,25.8,81.6,28.2,91.8L28.2,91.8L28.2,91.8z M23.7,79.8c-6.7,3.1-10.5,2.8-16.2-7.3C14.5,71.8,21.3,69.6,23.7,79.8
		L23.7,79.8L23.7,79.8z M19.3,67.9c-6,2.8-9.4,2.5-14.4-6.5C11.1,60.8,17.1,58.9,19.3,67.9L19.3,67.9L19.3,67.9z M15.4,57.4
		c-5.3,2.5-8.3,2.2-12.8-5.8C8.1,51.1,13.5,49.4,15.4,57.4L15.4,57.4L15.4,57.4z"/>
</g>
<g id="middle-leaf">
	<path class="st0" d="M61.6,18.5c6.2-4.2,7.1-10.1,0-18.5C58.6,3.1,52.1,12,61.6,18.5L61.6,18.5L61.6,18.5z"/>
	<path class="st0" d="M59.4,89.5c0-1.1,0.9-1.9,1.9-1.9c1.1,0,1.9,0.9,1.9,1.9v23.4c0,1.1-0.9,1.9-1.9,1.9c-1.1,0-1.9-0.9-1.9-1.9
		V89.5L59.4,89.5L59.4,89.5z"/>
	<path class="st1" d="M63.2,40.2c7.1,0.5,10.4-1,12-12C68.8,30,62,30.3,63.2,40.2L63.2,40.2L63.2,40.2z M63.2,28.2
		c6.6,0.5,9.7-0.9,11.2-11.1C68.4,18.7,62,19,63.2,28.2L63.2,28.2L63.2,28.2z M59.3,84.6c-9,0.7-13.1-1.2-15.2-15.1
		C52.3,71.6,60.9,72,59.3,84.6L59.3,84.6L59.3,84.6z M59.3,69c-9,0.7-13.1-1.2-15.2-15.1C52.3,56.1,60.9,56.5,59.3,69L59.3,69
		L59.3,69z M59.3,53.8c-8,0.6-11.7-1.1-13.5-13.5C53.1,42.3,60.8,42.6,59.3,53.8L59.3,53.8L59.3,53.8z M59.3,40.2
		c-7.1,0.5-10.4-1-12-12C53.8,30,60.6,30.3,59.3,40.2L59.3,40.2L59.3,40.2z M59.4,28.2c-6.6,0.5-9.7-0.9-11.2-11.1
		C54.2,18.7,60.5,19,59.4,28.2L59.4,28.2L59.4,28.2z M63.3,84.6c9,0.7,13.1-1.2,15.2-15.1C70.3,71.6,61.7,72,63.3,84.6L63.3,84.6
		L63.3,84.6z M63.3,69c9,0.7,13.1-1.2,15.2-15.1C70.3,56.1,61.7,56.5,63.3,69L63.3,69L63.3,69z M63.2,53.8c8,0.6,11.7-1.1,13.5-13.5
		C69.5,42.3,61.8,42.6,63.2,53.8L63.2,53.8L63.2,53.8z"/>
</g>
</svg>
