<?xml version="1.0" encoding="utf-8"?>
<!-- Generator: Adobe Illustrator 27.5.0, SVG Export Plug-In . SVG Version: 6.00 Build 0)  -->
<svg version="1.1" id="twoBeer" xmlns="http://www.w3.org/2000/svg" xmlns:xlink="http://www.w3.org/1999/xlink" x="0px" y="0px"
	 viewBox="0 0 111.9 122.9" style="enable-background:new 0 0 111.9 122.9;" xml:space="preserve">
<style type="text/css">
	.st0{fill-rule:evenodd;clip-rule:evenodd;fill:#FFB517;}
	.st1{fill-rule:evenodd;clip-rule:evenodd;}
	.st2{fill-rule:evenodd;clip-rule:evenodd;fill:#E6A10A;}
	.st3{fill-rule:evenodd;clip-rule:evenodd;fill:#96223B;}
	.st4{fill-rule:evenodd;clip-rule:evenodd;fill:#EECD65;}
	
	#twoBeer:hover #beer-splash {
      transition: all .7s ease-in-out;
      transform-origin: bottom center;
      transform: scale(1, 1.014);
    }

    #twoBeer:hover #left-beer {
      fill: yellow;
      transition: all 0.5s ease-in-out;
    }

    #twoBeer:hover #right-beer {
      fill: yellow;
      transition: all 0.5s ease-in-out;
    }
</style>
<script>
const twoBeer = document.querySelector("#twoBeer");

function logId() {
	console.log(this.id)
}

twoBeer.addEventListener("click", logId);

 </script>



<g id="beer-splash">
	<path class="st0" d="M66.9,10.8c-0.3,1.4-1.7,2.4-3.2,2c-1.4-0.3-2.4-1.7-2-3.2l1.7-7.5c0.3-1.4,1.7-2.4,3.2-2
		c1.4,0.3,2.4,1.7,2,3.2L66.9,10.8L66.9,10.8L66.9,10.8z"/>
	<path class="st0" d="M53.5,9.5c0.4,1.4-0.5,2.9-2,3.2c-1.4,0.4-2.9-0.5-3.2-1.9l-1.8-7.5c-0.4-1.4,0.5-2.9,2-3.2
		c1.4-0.4,2.9,0.5,3.2,2L53.5,9.5L53.5,9.5L53.5,9.5z"/>
	<path class="st0" d="M41.9,14c1.2,0.8,1.6,2.4,0.8,3.7c-0.8,1.2-2.4,1.6-3.7,0.8l-6.5-4.2c-1.2-0.8-1.6-2.4-0.8-3.7
		c0.8-1.2,2.4-1.6,3.7-0.8L41.9,14L41.9,14L41.9,14L41.9,14z"/>
	<path class="st0" d="M77.4,16.2c-0.8,1.2-2.5,1.4-3.7,0.6c-1.2-0.9-1.4-2.5-0.6-3.7l4.5-6.2c0.8-1.2,2.5-1.4,3.7-0.6
		s1.4,2.5,0.6,3.7L77.4,16.2L77.4,16.2L77.4,16.2z"/>
</g>
<g id="left-beer">
	<path class="st1" d="M34.9,28c0,0,0,0,0.2-0.1C35.4,27.8,35.1,27.9,34.9,28L34.9,28L34.9,28z"/>
	<path class="st1" d="M27.3,43.5c-0.1,0.3-0.3,0.5-0.4,0.8l-4,9.7c-1.9,0.7-4.1,1.9-6.1,3.6c-2,1.7-3.8,3.9-5.1,6.4l-0.1,0.4
		L0.3,106.5v0.1c-0.5,2.5-0.3,4.6,0.6,6.3c1,1.8,2.6,2.9,5,3.6l21.5,5.8c2.5,1,4.6,0.9,6.4-0.2c1.7-1,3-2.9,3.8-5.3v-0.2l11.2-42
		v-0.7c-0.2-2.5-0.5-5.1-1.1-7.4c-0.6-2.2-1.5-4.2-3-5.8l2.4-21.6l1.5-1.4l0.6-1l1.3-4.8c0.2-0.7,0.2-0.5,0.1-0.4
		c0.3-1.2,0.5-1.7-0.2-2.6c-0.5-0.8-1-0.9-2-1.1l-0.7-0.2l-11.1-3c-0.4-0.1-0.7-0.2-0.9-0.3c-0.8-0.3-1.3-0.4-2.1-0.1
		c-1.2,0.4-1.4,1.1-1.8,2.7l-1.3,4.8v0.9l0.4,2l-3.7,8.9L27.3,43.5L27.3,43.5L27.3,43.5z"/>
	<polygon class="st2" points="42.8,43.2 32,42.5 35,35.5 35.1,34.4 34.7,32.2 35.7,28.4 35.8,28.4 46.7,31.3 45.7,35 44,36.5 
		43.4,37.8 42.8,43.2 	"/>
	<path class="st3" d="M4.8,105.2l29.6,7.9l-0.6,2.2c-0.6,1.6-1.3,2.7-2.1,3.2c-0.7,0.4-1.7,0.4-2.9-0.1l-0.3-0.1l-21.6-5.8
		c-1.2-0.3-2.1-0.8-2.5-1.6C4,110.2,4,109,4.3,107.5L4.8,105.2L4.8,105.2L4.8,105.2L4.8,105.2z"/>
	<polygon class="st4" points="14.1,70.6 43.7,78.5 35.8,108 6.2,100.1 	"/>
	<path class="st3" d="M44.9,73.3l-29.4-7.9c1-1.9,2.4-3.5,4-4.8c1.8-1.6,3.8-2.7,5.5-3.1l1-0.3l0.4-0.9l3.6-8.7l12.3,0.7L40.8,61
		l-0.1,1l0.8,0.7c1.2,1.1,2,2.8,2.5,4.7C44.5,69.2,44.7,71.2,44.9,73.3L44.9,73.3L44.9,73.3L44.9,73.3z"/>
	<path class="st2" d="M27.9,78.4c-6.4-1.7-12.9,2.1-14.6,8.4s2.1,12.9,8.4,14.6c6.4,1.7,12.9-2.1,14.6-8.4S34.3,80.1,27.9,78.4
		L27.9,78.4L27.9,78.4z"/>
	<polygon class="st3" points="26.7,82.9 23.3,87.3 17.8,86.3 21,90.9 18.3,95.8 23.7,94.2 27.5,98.3 27.6,92.7 32.7,90.3 27.4,88.5 
		26.7,82.9 	"/>
</g>
<g id="right-beer">
	<path class="st1" d="M77.1,25.6c0,0,0,0-0.2-0.1C76.6,25.4,76.8,25.5,77.1,25.6L77.1,25.6L77.1,25.6z"/>
	<path class="st1" d="M84.6,41.1c0.2,0.3,0.3,0.5,0.4,0.8l4,9.7c1.9,0.7,4.1,1.9,6.1,3.6c2,1.7,3.8,3.9,5.1,6.4l0.2,0.4l11.3,42.2
		v0.1c0.5,2.5,0.3,4.6-0.6,6.3c-1,1.8-2.6,2.9-5,3.6L84.6,120c-2.5,1-4.6,0.9-6.4-0.2c-1.7-1-2.9-2.9-3.8-5.3v-0.2l-11.2-42v-0.7
		c0.2-2.5,0.5-5.1,1.1-7.5c0.6-2.2,1.5-4.2,3-5.8l-2.4-21.6l-1.5-1.4l-0.6-1l-1.3-4.8c-0.2-0.7-0.2-0.5-0.1-0.4
		c-0.3-1.2-0.5-1.7,0.2-2.6c0.5-0.8,1-0.9,2-1.1l0.7-0.2l11.1-3c0.4-0.1,0.7-0.2,0.9-0.3c0.8-0.3,1.3-0.4,2.1-0.1
		c1.2,0.4,1.4,1.1,1.8,2.7l1.3,4.8v0.9l-0.4,2l3.7,8.9L84.6,41.1L84.6,41.1L84.6,41.1z"/>
	<polygon class="st2" points="69.2,40.8 79.9,40.1 77,33.1 76.9,32 77.3,29.8 76.2,26 76.1,26 65.2,29 66.2,32.6 67.9,34.2 
		68.6,35.4 69.2,40.8 	"/>
	<path class="st3" d="M107.1,102.9l-29.6,7.9l0.6,2.2c0.6,1.6,1.3,2.7,2.1,3.2c0.7,0.4,1.7,0.4,2.9-0.1l0.3-0.1l21.6-5.8
		c1.2-0.3,2.1-0.8,2.5-1.6c0.4-0.8,0.5-1.9,0.2-3.4L107.1,102.9L107.1,102.9L107.1,102.9L107.1,102.9z"/>
	<polygon class="st4" points="97.8,68.2 68.2,76.2 76.1,105.6 105.7,97.7 	"/>
	<path class="st3" d="M67,70.9L96.4,63c-1-1.9-2.4-3.5-3.9-4.8c-1.8-1.6-3.8-2.7-5.5-3.1l-1-0.3L85.7,54l-3.6-8.7L69.7,46l1.4,12.6
		l0.1,1l-0.8,0.7c-1.2,1.1-2,2.8-2.5,4.7C67.5,66.8,67.2,68.9,67,70.9L67,70.9L67,70.9L67,70.9z"/>
	<path class="st2" d="M84.1,76c6.4-1.7,12.9,2.1,14.6,8.4S96.6,97.3,90.3,99c-6.4,1.7-12.9-2.1-14.6-8.4
		C73.9,84.3,77.7,77.7,84.1,76L84.1,76L84.1,76z"/>
	<polygon class="st3" points="85.3,80.5 88.7,85 94.2,83.9 91,88.6 93.7,93.5 88.3,91.9 84.4,96 84.3,90.3 79.2,87.9 84.6,86.1 
		85.3,80.5 	"/>
</g>
</svg>
